<?xml version="1.0" encoding="UTF-8"?>
<svg version="1.1" xmlns="http://www.w3.org/2000/svg" xmlns:xlink="http://www.w3.org/1999/xlink">
<defs>

</defs>
<symbol id="i-vk" xmlns="http://www.w3.org/2000/svg" viewBox="0 0 19.9 11.3"><path d="M9.7 11.3h1.2c.2 0 .4-.1.5-.2.1-.2.2-.3.2-.5 0 0 0-1.6.7-1.8S14 10.3 15 11c.4.3.8.4 1.3.4H19s1.4-.1.7-1.2c-.5-.9-1.2-1.6-2-2.3-1.7-1.5-1.4-1.3.6-4 1.2-1.6 1.7-2.6 1.6-3s-1-.3-1-.3h-3c-.1 0-.3 0-.4.1l-.3.3c-.3.8-.7 1.6-1.1 2.4-1.3 2.3-1.9 2.4-2.1 2.2-.5-.3-.4-1.3-.4-2 0-2.2.3-3.1-.6-3.3-.5-.2-1-.3-1.4-.3-.9-.1-1.7 0-2.5.3-.4.1-.6.5-.5.5.4.1.7.2.9.5.2.4.3.9.3 1.4 0 0 .2 2.6-.4 2.9-.4.1-1-.3-2.1-2.4-.4-.7-.8-1.4-1.1-2.2-.1-.1-.1-.2-.3-.3-.1-.1-.2-.1-.4-.2H.6S.2.5 0 .7s0 .5 0 .5S2.2 6.4 4.8 9c1.3 1.5 3.1 2.3 4.9 2.3" fill="inherit"/></symbol>
</svg>