<svg width="21" height="22" viewBox="0 0 21 22" fill="none" xmlns="http://www.w3.org/2000/svg">
<path d="M1.36982 1.52739C-0.275685 3.31763 0.0610945 5.21936 0.0610945 10.9967C0.0610945 15.7945 -0.738103 20.6041 3.4446 21.7364C4.75071 22.0882 16.3234 22.0882 17.6277 21.7345C19.3692 21.2639 20.7861 19.7844 20.9798 17.2046C21.0069 16.8445 21.0069 5.15539 20.9789 4.78802C20.773 2.04007 19.1581 0.456357 17.0301 0.135594C16.5424 0.0615722 16.4446 0.0396397 13.9423 0.0350705C5.06655 0.0396397 3.1209 -0.374336 1.36982 1.52739Z" fill="url(#paint0_linear)"/>
<path d="M10.4994 2.32361C7.15433 2.32361 3.97787 2.02852 2.76459 5.11648C2.26343 6.39186 2.33621 8.04822 2.33621 10.4199C2.33621 12.5011 2.26896 14.4571 2.76459 15.7224C3.97511 18.8122 7.17737 18.5162 10.4975 18.5162C13.7007 18.5162 17.0034 18.847 18.2314 15.7224C18.7335 14.4343 18.6598 12.8026 18.6598 10.4199C18.6598 7.25704 18.8358 5.21515 17.289 3.68213C15.7229 2.12901 13.6049 2.32361 10.4957 2.32361H10.4994ZM9.76792 3.78263C16.7455 3.77166 17.6335 3.00241 17.1434 13.6888C16.9693 17.4683 14.0674 17.0536 10.5003 17.0536C3.9963 17.0536 3.80928 16.869 3.80928 10.4163C3.80928 3.8886 4.32518 3.78628 9.76792 3.7808V3.78263ZM14.8569 5.12653C14.3161 5.12653 13.8776 5.5614 13.8776 6.09768C13.8776 6.63397 14.3161 7.06884 14.8569 7.06884C15.3977 7.06884 15.8362 6.63397 15.8362 6.09768C15.8362 5.5614 15.3977 5.12653 14.8569 5.12653ZM10.4994 6.26213C8.18429 6.26213 6.30771 8.12405 6.30771 10.4199C6.30771 12.7158 8.18429 14.5768 10.4994 14.5768C12.8145 14.5768 14.6901 12.7158 14.6901 10.4199C14.6901 8.12405 12.8145 6.26213 10.4994 6.26213ZM10.4994 7.72115C14.0969 7.72115 14.1015 13.1187 10.4994 13.1187C6.90283 13.1187 6.89731 7.72115 10.4994 7.72115Z" fill="white"/>
<defs>
<linearGradient id="paint0_linear" x1="1.40998" y1="20.5667" x2="21.6377" y2="3.85231" gradientUnits="userSpaceOnUse">
<stop stop-color="#FFDD55"/>
<stop offset="0.5" stop-color="#FF543E"/>
<stop offset="1" stop-color="#C837AB"/>
</linearGradient>
</defs>
</svg>
