<?xml version="1.0" encoding="UTF-8"?><!DOCTYPE svg PUBLIC "-//W3C//DTD SVG 1.1//EN" "http://www.w3.org/Graphics/SVG/1.1/DTD/svg11.dtd"><svg xmlns="http://www.w3.org/2000/svg" xmlns:xlink="http://www.w3.org/1999/xlink"><defs/><symbol id="arrow" viewBox="0 0 20 16">
<path d="M0.292892 7.29289C-0.0976315 7.68342 -0.0976314 8.31658 0.292893 8.70711L6.65686 15.0711C7.04738 15.4616 7.68054 15.4616 8.07107 15.0711C8.46159 14.6805 8.46159 14.0474 8.07107 13.6569L2.41421 8L8.07107 2.34315C8.46159 1.95262 8.46159 1.31946 8.07107 0.928933C7.68054 0.538409 7.04738 0.538409 6.65685 0.928933L0.292892 7.29289ZM20 7L1 7L1 9L20 9L20 7Z" fill="white"/>
</symbol><symbol id="email" viewBox="0 0 14 10">
<path d="M13.8768 0.703369L9.63086 4.92194L13.8768 9.1405C13.9535 8.98008 14.0001 8.80272 14.0001 8.61334V1.23053C14.0001 1.04112 13.9535 0.863795 13.8768 0.703369Z" fill="#DE031C"/>
<path d="M12.7693 0H1.23029C1.04088 0 0.863551 0.0465665 0.703125 0.12332L6.12985 5.5227C6.60968 6.00253 7.38996 6.00253 7.86979 5.5227L13.2965 0.12332C13.1361 0.0465665 12.9588 0 12.7693 0Z" fill="#DE031C"/>
<path d="M0.12332 0.703369C0.0465664 0.863795 0 1.04112 0 1.23053V8.61334C0 8.80275 0.0465664 8.9801 0.12332 9.1405L4.36923 4.92194L0.12332 0.703369Z" fill="#DE031C"/>
<path d="M9.0506 5.50195L8.44977 6.10278C7.65027 6.90228 6.34934 6.90228 5.54983 6.10278L4.94904 5.50195L0.703125 9.72052C0.863551 9.79727 1.04088 9.84384 1.23029 9.84384H12.7693C12.9588 9.84384 13.1361 9.79727 13.2965 9.72052L9.0506 5.50195Z" fill="#DE031C"/>
</symbol><symbol id="location" viewBox="0 0 11 15">
<path d="M5.5 0C2.46728 0 0 2.43688 0 5.43219C0 9.14946 4.92196 14.6066 5.13152 14.8371C5.32835 15.0537 5.67201 15.0533 5.86848 14.8371C6.07804 14.6066 11 9.14946 11 5.43219C10.9999 2.43688 8.53269 0 5.5 0ZM5.5 8.16527C3.97416 8.16527 2.73284 6.93922 2.73284 5.43219C2.73284 3.92516 3.97419 2.69913 5.5 2.69913C7.02581 2.69913 8.26713 3.92519 8.26713 5.43222C8.26713 6.93925 7.02581 8.16527 5.5 8.16527Z" fill="#DE031C"/>
</symbol><symbol id="logo" viewBox="0 0 1560.5 1010.5">
<style type="text/css">
	.st0{fill:#C9092E;}
</style>
<g id="&#x41D;&#x430;&#x43F;&#x440;&#x430;&#x432;&#x43B;&#x44F;&#x44E;&#x449;&#x438;&#x435;_&#x434;&#x43B;&#x44F;_&#x43C;&#x43E;&#x43D;&#x442;&#x430;&#x436;&#x43D;&#x43E;&#x439;_&#x43E;&#x431;&#x43B;&#x430;&#x441;&#x442;&#x438;">
</g>
<g id="&#x421;&#x43B;&#x43E;&#x439;_1">
	<g>
		<g>
			<path class="st0" d="M913,525c1.9,2.8,2.8,5.7,2.8,8.5c0,2.8-0.6,5.6-1.9,8.5c-1.3,2.8-2.9,5.5-4.9,8c-2,2.5-4,5-5.9,7.5
				c-13.2,18.8-25.2,38.8-36,60c-10.8,21.2-22.8,45.3-36,72.3c-8.8,18-15.6,33.6-22.8,49.7c-8.4,18.5-15.3,34.2-20.4,45.8
				c5.5-1.7,13.1-4.3,21.6-8.4c3.1-1.5,11.3-5.5,24.7-15c8.7-6.1,20.1-14.8,32.8-26.5c1.3,5.2,2.6,10.5,3.8,15.7
				c-16.1,13.7-36.8,28.7-62.7,41.5c-9.6,4.8-18.9,8.7-27.8,12c-4.6,10.8-9.1,21.8-13.7,32.9c-7.7,18.5-9.2,22.7-13.8,33.7
				c-7.9,18.8-12.5,29.7-19.1,42.9c-8.1,16.1-24.5,46.5-28.5,44.8c-0.9-0.4-1.2-2.3,0.7-13.5c3.6-21.5,8.7-37.6,10-41.6
				c5.4-17.3,2.5-10.6,11.4-41.3c4-13.9,9.3-31.3,15.8-51.3c-21.7,3.1-43.1,6.8-64.3,10.8c-21.2,4.1-43.1,7.8-65.7,11.3
				c-0.9,0.3-3.8,0.8-8.5,1.4c-4.7,0.6-9.7,1.4-15.1,2.4c-6.3,1.3-13.3,2.5-21.2,3.8c-18.8,19.8-37.6,39.4-56.3,58.8
				c-18.7,19.5-37.9,39.5-57.7,60.3c-5.3,6-10.8,11.8-16.2,17.7c-5.5,5.8-11.1,11.7-16.7,17.7c-4.7,4.4-8.9,8.2-12.5,11.3
				c-3.6,3.1-5.4,4.4-5.4,3.8c0-0.9,0.6-2.6,1.9-4.9c1.3-2.4,2.7-4.9,4.2-7.5c1.6-2.7,3.1-5.3,4.7-7.8c1.6-2.5,3-4.7,4.2-6.6
				c16.9-23.5,34.5-46.7,52.7-69.4c18.2-22.8,37.5-45.4,57.9-68c-23.5,2.5-47.2,5.3-70.9,8.5c-23.7,3.1-48.7,5.8-75.1,8
				c-12.2,0.9-24.7,1.7-37.4,2.4c-12.7,0.6-25.7,0.6-38.8,0c-0.3,0-1.7-0.2-4.2-0.5c-2.5-0.3-3.4-0.8-2.8-1.4
				c0.3-0.9,2.2-1.8,5.6-2.6c3.5-0.8,7.2-1.6,11.3-2.4c4.1-0.8,8-1.4,11.8-1.9c3.8-0.5,6.4-0.9,8-1.2c25.4-4.1,50.9-7.9,76.5-11.5
				c25.6-3.6,53.1-7.8,82.6-12.5c9.1-1.6,18.2-3,27.3-4.2c9.1-1.3,18.2-2.7,27.3-4.2c6.3-6.6,12.5-13.3,18.6-20
				c6.1-6.7,12.3-13.3,18.6-19.5c24.8-26.4,50.1-51.9,76-76.7c25.9-24.8,53.1-49.4,81.7-73.9c14.1-11.9,28.2-23.8,42.4-35.5
				c14.1-11.8,28.6-23.1,43.3-34.1c8.8-6.9,17.8-13.7,27.1-20.5c9.3-6.7,18.9-13.3,29-19.5c4.1-2.8,8.5-4.5,13.4-4.9
				C905.4,517.2,909.6,519.6,913,525z M749.2,793.8c0.3-1.6,1.4-4.5,3.3-8.9c1.9-4.4,4-9.7,6.4-15.8c2.4-6.1,5-12.6,8-19.5
				c3-6.9,5.8-13.6,8.5-20c2.7-6.4,5.2-12.3,7.5-17.7c2.4-5.3,4.2-9.6,5.4-12.7c3.8-8.5,8.1-18,12.9-28.7
				c4.9-10.7,10-21.4,15.3-32.2c5.3-10.8,10.7-21.4,16-31.8c5.3-10.4,10.2-19.6,14.6-27.8c-20.7,15.7-42.1,33-64.3,51.8
				c-22.1,18.8-44.2,38.5-66.1,59.1c-22,20.6-43.5,41.6-64.5,63.1c-21,21.5-40.8,42.8-59.3,63.8c15.7-2.2,31.1-4.5,46.1-6.8
				c15.1-2.4,30.4-4.6,46.1-6.8c10.7-1.6,21.3-3.1,31.8-4.5C727.5,796.8,738.2,795.4,749.2,793.8z"/>
			<path class="st0" d="M963.7,672.6c0.3,3.5-0.3,6.6-1.9,9.4c-1.6,2.8-3.5,5.4-5.9,7.8c-2.4,2.4-4.9,4.6-7.5,6.8
				c-2.7,2.2-4.8,4.7-6.4,7.5c-3.1,5.3-5.9,11-8.2,16.9c-2.4,6-4.5,11.9-6.4,17.9c-1.9,6.6-3.7,12.9-5.4,19.1
				c-1.7,6.1-3.4,12.3-4.9,18.6c-3.1,11-8,21.3-14.6,31.1c-6.6,9.7-14.9,17.3-25,22.6c-11.9,6-23.7,8.5-35.3,7.5
				c-6.3-0.9-11.5-2.7-15.5-5.2c-0.3,0-1.2-0.5-2.8-1.4c-1.6-0.9-3.2-1.9-4.9-2.8c-1.7-0.9-3.1-2-4.2-3.1c-1.1-1.1-1.5-2-1.2-2.6
				c0.3-0.6,2-0.4,5.2,0.7c3.1,1.1,5,1.6,5.7,1.6c4.1,1.3,8.6,1.9,13.7,1.9c9.1-0.6,17.1-3.6,24-8.9c6-4.4,11.4-10.2,16.2-17.4
				c4.9-7.2,7.8-14.4,8.7-21.7c1.2-7.2,2.4-14.7,3.5-22.4c1.1-7.7,2.1-15.6,3.1-23.8c-7.8,7.2-17.6,14.9-29.2,23.1
				c-11.6,8.2-23,15.6-34.1,22.4c-11.1,6.8-20.8,12.2-29,16.5c-8.2,4.2-12.7,5.9-13.7,4.9c-0.6-0.9,3.5-4.8,12.5-11.5
				c8.9-6.7,19.8-15.1,32.5-25c12.7-9.9,25.7-20.8,39.1-32.7c13.3-11.9,24.1-23.7,32.2-35.3c2.8-4.4,5.6-8.7,8.5-12.9
				c2.8-4.2,6-8.5,9.4-12.9c3.4-3.5,7.3-6.4,11.5-8.9c4.2-2.5,8.9-3.8,13.9-3.8c4.4,0,8.2,1.6,11.3,4.7
				C961.7,664.5,963.4,668.2,963.7,672.6z"/>
			<path class="st0" d="M1064.5,672.6c0.3,3.5-0.3,6.6-1.9,9.4c-1.6,2.8-3.5,5.4-5.9,7.8c-2.4,2.4-4.9,4.6-7.5,6.8
				c-2.7,2.2-4.8,4.7-6.4,7.5c-3.1,5.3-5.9,11-8.2,16.9c-2.4,6-4.5,11.9-6.4,17.9c-1.9,6.6-3.7,12.9-5.4,19.1
				c-1.7,6.1-3.4,12.3-4.9,18.6c-3.1,11-8,21.3-14.6,31.1c-6.6,9.7-14.9,17.3-25,22.6c-11.9,6-23.7,8.5-35.3,7.5
				c-6.3-0.9-11.5-2.7-15.5-5.2c-0.3,0-1.2-0.5-2.8-1.4c-1.6-0.9-3.2-1.9-4.9-2.8c-1.7-0.9-3.1-2-4.2-3.1c-1.1-1.1-1.5-2-1.2-2.6
				c0.3-0.6,2-0.4,5.2,0.7c3.1,1.1,5,1.6,5.7,1.6c4.1,1.3,8.6,1.9,13.7,1.9c9.1-0.6,17.1-3.6,24-8.9c6-4.4,11.4-10.2,16.2-17.4
				c4.9-7.2,7.8-14.4,8.7-21.7c1.2-7.2,2.4-14.7,3.5-22.4c1.1-7.7,2.1-15.6,3.1-23.8c-7.8,7.2-17.6,14.9-29.2,23.1
				c-11.6,8.2-23,15.6-34.1,22.4c-11.1,6.8-20.8,12.2-29,16.5c-8.2,4.2-12.7,5.9-13.7,4.9c-0.6-0.9,3.5-4.8,12.5-11.5
				c8.9-6.7,19.8-15.1,32.5-25c12.7-9.9,25.7-20.8,39.1-32.7c13.3-11.9,24.1-23.7,32.2-35.3c2.8-4.4,5.6-8.7,8.5-12.9
				c2.8-4.2,6-8.5,9.4-12.9c3.4-3.5,7.3-6.4,11.5-8.9c4.2-2.5,8.9-3.8,13.9-3.8c4.4,0,8.2,1.6,11.3,4.7
				C1062.4,664.5,1064.2,668.2,1064.5,672.6z"/>
			<path class="st0" d="M1200.1,671.7c4.1,1.3,7.4,3.4,9.9,6.4c2.5,3,3.6,4.3,3.3,4c-0.9-0.3-2.3-0.7-4-1.2
				c-1.7-0.5-4.2-0.9-7.3-1.2c-6-0.6-11.9-0.1-17.9,1.6c-6,1.7-11.9,4.2-17.9,7.5c-6,3.3-12,7.2-18.1,11.8
				c-6.1,4.6-12.3,9.3-18.6,14.4c-2.8,2.5-8,7.5-15.5,15.1c-7.5,7.5-15.1,16.2-22.8,26.1c-7.7,9.9-14.4,20.2-20.2,31.1
				c-5.8,10.8-8.7,20.6-8.7,29.4c9.1-1.3,19.8-5.7,32-13.4c12.2-7.7,24.2-16.8,35.8-27.3c11.6-10.5,22.1-21.7,31.5-33.4
				c9.4-11.8,15.8-22.5,19.3-32.2c1.2-3.1,2-6.2,2.4-9.2c0.3-3,0-6.2-0.9-9.7c-0.6-1.9-0.9-3-0.9-3.3c0.3-1.3,1.6-0.5,4,2.1
				c2.4,2.7,4,5.9,4.9,9.7c3.8,14.1,2,28.7-5.4,43.8c-7.4,15.1-17.6,29-30.6,41.9c-13,12.9-27.3,24-42.8,33.4
				c-15.5,9.4-29.6,15.7-42.1,18.8c-8.5,2.5-16.5,2.5-24,0c-6.3-2.5-10.7-6.9-13.2-13.2c-2.5-6.3-3.3-12.5-2.4-18.8
				c1.2-8.2,3.5-15.9,6.8-23.3c3.3-7.4,7.5-14.7,12.5-21.9c4.4-6.3,9.9-13.2,16.5-20.7c6.6-7.5,14-15,22.4-22.4
				c8.3-7.4,17.3-14.4,26.8-21.2c9.6-6.7,19.2-12.3,29-16.7c9.7-4.4,19.4-7.5,29-9.2C1182.1,668.8,1191.3,669.2,1200.1,671.7z"/>
			<path class="st0" d="M1461.8,419.8c0.6,0.6,0.7,1.6,0.2,3.1c-0.5,1.4-1.1,3-1.9,4.7c-0.8,1.7-1.6,3.4-2.4,4.9
				c-0.8,1.6-1.3,2.7-1.6,3.3c-9.7,17.6-20,34.7-30.8,51.3c-10.8,16.6-21.7,33.3-32.7,49.9c-11.9,17.6-23.9,34.9-36,52
				c-12.1,17.1-24.2,34.3-36.5,51.5c-16,22.3-32.2,44.3-48.5,65.9c-16.3,21.7-32.6,43.5-49,65.4c-2.5,3.5-5.1,6.9-7.8,10.4
				c-2.7,3.5-5.3,6.9-7.8,10.4c21.7-15.4,43.6-29.8,65.9-43.3c0.3-0.3,1.3-1,3.1-2.1c1.7-1.1,3.7-2.2,5.9-3.3c2.2-1.1,4.2-2,6.1-2.8
				c1.9-0.8,3.1-1,3.8-0.7c0.6,0.3,0.2,1-1.2,2.1c-1.4,1.1-2.9,2.4-4.5,4c-5.6,5-11.4,9.8-17.2,14.4c-5.8,4.6-11.5,9.2-17.2,13.9
				c-8.5,6.6-16.8,13.2-25,19.8c-8.2,6.6-16.3,13.5-24.5,20.7c-3.1,2.5-6.2,5.2-9.2,8c-3,2.8-6,5.7-9.2,8.5c-2.5,2.2-5.2,4.1-8,5.7
				c-2.8,1.6-6,1.7-9.4,0.5c-6-1.9-9.1-5.6-9.4-11.3c-0.3-4.4,0.9-9.1,3.5-14.1c2.7-5,5.1-9.3,7.3-12.7c17.3-27.3,35.9-54.4,56-81.4
				c15.7-21,30.4-41,44-60c13.7-19,28-38.5,43.1-58.6c12.5-16.9,25.2-33.7,37.9-50.4c12.7-16.6,25.8-33.1,39.3-49.4
				c9.4-11.3,18.7-22.8,28-34.4c9.3-11.6,19.1-22.6,29.4-33c0.3-0.3,1.2-1.3,2.8-2.8c1.6-1.6,3.2-3.2,4.9-4.9c1.7-1.7,3.4-3.1,4.9-4
				C1460.1,419.8,1461.2,419.5,1461.8,419.8z"/>
			<path class="st0" d="M1533.8,419.8c0.6,0.6,0.7,1.6,0.2,3.1c-0.5,1.4-1.1,3-1.9,4.7c-0.8,1.7-1.6,3.4-2.4,4.9
				c-0.8,1.6-1.3,2.7-1.6,3.3c-9.7,17.6-20,34.7-30.8,51.3c-10.8,16.6-21.7,33.3-32.7,49.9c-11.9,17.6-23.9,34.9-36,52
				c-12.1,17.1-24.2,34.3-36.5,51.5c-16,22.3-32.2,44.3-48.5,65.9c-16.3,21.7-32.6,43.5-49,65.4c-2.5,3.5-5.1,6.9-7.8,10.4
				c-2.7,3.5-5.3,6.9-7.8,10.4c21.7-15.4,43.6-29.8,65.9-43.3c0.3-0.3,1.3-1,3.1-2.1c1.7-1.1,3.7-2.2,5.9-3.3c2.2-1.1,4.2-2,6.1-2.8
				c1.9-0.8,3.1-1,3.8-0.7c0.6,0.3,0.2,1-1.2,2.1c-1.4,1.1-2.9,2.4-4.5,4c-5.6,5-11.4,9.8-17.2,14.4c-5.8,4.6-11.5,9.2-17.2,13.9
				c-8.5,6.6-16.8,13.2-25,19.8c-8.2,6.6-16.3,13.5-24.5,20.7c-3.1,2.5-6.2,5.2-9.2,8c-3,2.8-6,5.7-9.2,8.5c-2.5,2.2-5.2,4.1-8,5.7
				c-2.8,1.6-6,1.7-9.4,0.5c-6-1.9-9.1-5.6-9.4-11.3c-0.3-4.4,0.9-9.1,3.5-14.1c2.7-5,5.1-9.3,7.3-12.7c17.3-27.3,35.9-54.4,56-81.4
				c15.7-21,30.4-41,44-60c13.7-19,28-38.5,43.1-58.6c12.5-16.9,25.2-33.7,37.9-50.4c12.7-16.6,25.8-33.1,39.3-49.4
				c9.4-11.3,18.7-22.8,28-34.4c9.3-11.6,19.1-22.6,29.4-33c0.3-0.3,1.2-1.3,2.8-2.8c1.6-1.6,3.2-3.2,4.9-4.9c1.7-1.7,3.4-3.1,4.9-4
				C1532.1,419.8,1533.2,419.5,1533.8,419.8z"/>
		</g>
		<path class="st0" d="M1441.6,624.3c9.3-3,22.9-1.8,27.4,6c4.9,8.5-3.5,20.9-10.2,30.7c-3.6,5.3-9.9,13.4-28.6,27.9
			c-11.1,8.6-34.7,25.8-36.9,23.2c-1.2-1.4,6.3-10.3,21.3-27.9c7.7-9.1,14.3-16.5,18.7-21.5c-6.8-5-10.6-12.8-9.6-20.3
			C1425.3,629.5,1439.7,624.9,1441.6,624.3z"/>
		<path class="st0" d="M1251.1,651.7c-66.7-2.9-134.1-5.5-202.1-7.7c-59.5-1.9-118.5-3.5-177-4.9c1.8-3.4,3.6-6.9,5.6-10.5
			c1.9-3.4,3.7-6.6,5.6-9.8c86.6-2.6,179.9-0.9,278.8,7c35.6,2.8,70.2,6.4,103.8,10.5c-0.5,1.9-1.7,5.6-4.9,9.1
			C1257.2,649.5,1253,651.1,1251.1,651.7z"/>
		<path class="st0" d="M744.4,611.9c-5.5,3.5-11.7,8-18.1,13.9c-4.4,4.1-8.1,8.1-11.2,11.8c-76.9,0.9-153.8,1.9-230.7,2.8
			c-29.4-1.7-65.2-6.7-104.5-18.8c-82.7-25.5-140.2-70.2-172.9-100.4c30.5,17.4,57.4,29.8,78.1,38.3c21.1,8.8,117.5,47.5,248.8,54.4
			c22.4,1.2,42.4,1.1,82.6,1C669.9,615,713.9,613.4,744.4,611.9z"/>
		<path class="st0" d="M863.6,524.1c-120.2-5.8-241.2-11.2-363.1-16C332,501.4,165.2,495.9,0,491.4c173.8-2.4,319.4-2.2,426.6-1.4
			c374.5,2.8,510.3,14.5,557.6,18.8c146.1,13.4,265.4,32.1,345.2,46.2c-4.7,4.9-9.4,9.8-14.1,14.6c-97.8-18.5-204.1-31.9-317.8-37.1
			c-23.2-1.1-46.1-1.7-68.7-2.1c-1.1-6.6-3.8-10.4-5.9-12.5C912.2,507,887.9,508.8,863.6,524.1z"/>
		<path class="st0" d="M249.5,519.9c-2,11.6,87.2,37.1,143.6,50.2c84.9,19.6,157.2,25.1,207,26.5c-8.5-6.9-12.4-13.5-11.8-19.5
			c1.8-18.6,46.2-33,133.1-43.2c-55.5-1.7-138.5-4.7-239.8-9.8C322.4,516.2,251.3,509.8,249.5,519.9z"/>
		<path class="st0" d="M654.5,596.8c-7.9-4.7-11.7-9.2-11.5-13.6c0.8-17.6,67.3-32.4,199.7-44.4c-16.2,8.6-33.9,19.3-52.3,32.4
			c-11.7,8.4-22.3,16.9-31.9,25.1C723.8,596.4,689.1,596.6,654.5,596.8z"/>
		<path class="st0" d="M889.2,602.5c8.2-0.3,17-0.3,26.1,0c10.7,0.3,20.9,1.1,30.3,2.1c-11.2-5.7-16.6-11-16.2-15.7
			c1.4-15.9,68.5-26,201.3-30.3c-41.5-4.4-85.6-7.6-132.3-8.9c-25.3-0.7-49.9-0.9-73.7-0.5C912.9,567,901,584.8,889.2,602.5z"/>
		<path class="st0" d="M1270.2,619.8c-42.4-5.1-87.2-9.3-134.3-12c-38-2.2-74.7-3.4-109.8-3.7c-5.4-4.1-7.8-7.8-7.3-11
			c2.9-17.7,97-20.7,282.3-8.9C1290.8,596.1,1280.5,607.9,1270.2,619.8z"/>
		<path class="st0" d="M586.9,262.1C410.3,329.3,237,397.2,66.9,465.6c74.8-22.3,149.6-44.6,224.4-66.9
			c135.8-7.2,300.8-3.7,485.1,26.5c102.7,16.8,196,39.5,278.8,64.1c13.7-74.5,42.1-179.6,104.5-292.7
			c46.9-84.9,99.5-149.8,143.6-196.5C1068.4,82.5,829.4,169.8,586.9,262.1z M1116.9,177c-11.7,12.8-27.5,25-47,26.5
			c-24.4,1.9-41.8-14-48.1-7.7c-9.4,9.5,25.3,49.4,16.7,59.2c-12.2,14.1-101-47.2-105.9-40.4c-5.1,6.9,83.8,74,77.4,84.3
			c-8.7,13.8-181.6-83-186.1-75.3c-4.7,8,181.1,116.8,172.9,133.1c-9.5,18.8-268.8-96.1-273.2-86.4c-4.5,10,268.2,135.9,260.7,154
			c-3.8,9.2-77.3-12.3-116.2-23.3c-28.7-8.5-58.3-16.8-88.7-24.8c-97.8-25.6-189.9-43.9-274.6-57.2c113.5-44.1,229.7-87.8,348.5-131
			c123.6-45,245.4-87.7,365.2-128.2C1186.9,90.1,1151.2,129,1116.9,177z"/>
		<path class="st0" d="M1139.6,263.5c49.3-15.6,103.8-30.3,163.1-42.5c94.9-19.6,181.9-28.7,257.9-32.1c-33.2,31-69.2,69-104.5,115
			c-62.5,81.3-102.1,160.5-127.5,223.7c-51.1-19.4-109.6-37.6-174.9-51.6c-27-5.8-53.1-10.3-78.1-13.9c23.1-2.3,57.6-4.8,99.7-4.2
			c74.2,1.1,122.7,11.2,123.4,7.7c0.7-3.8-55.7-20.6-120.6-30.7c-56.8-8.8-89.7-7.6-89.9-12.5c-0.4-7.7,80-18.2,122.7-23.7
			c98.4-12.8,150.6-14,150.5-18.1c0-4.8-69.2-10.3-138.7-9.8c-73.1,0.6-118,7.6-118.5,4.2c-0.6-4.3,69-19.4,138-30.7
			c105.9-17.2,165.2-17.7,165.2-23c-0.1-6-77.7-13.9-161-10.5c-74.7,3.1-122.5,13.9-123.4,9.8c-1.1-5.3,76.8-26.9,143.6-43.2
			c135.5-33.1,218.7-43,218.2-47.4c-0.6-4.9-107.7,3.2-206.3,14.6C1220.2,251.4,1172.3,258.3,1139.6,263.5z"/>
	</g>
</g>
</symbol><symbol id="phone" viewBox="0 0 13 13">
<path d="M12.3954 9.92067L10.5234 8.04429C10.1506 7.67209 9.53314 7.6834 9.14729 8.07025L8.2042 9.01527C8.14462 8.98236 8.08295 8.94798 8.01811 8.9115C7.42256 8.58077 6.60745 8.12746 5.74971 7.26715C4.88943 6.40503 4.43673 5.58681 4.10573 4.98953C4.07081 4.92625 4.03734 4.86524 4.00429 4.80731L4.63724 4.17386L4.94843 3.86159C5.33486 3.47418 5.34552 2.8555 4.97353 2.48222L3.1016 0.605626C2.72962 0.23287 2.11188 0.244178 1.72545 0.631594L1.19787 1.1634L1.21229 1.17775C1.03539 1.40398 0.887563 1.66491 0.777556 1.94629C0.67615 2.21413 0.613015 2.46972 0.584147 2.72584C0.33697 4.77963 1.27337 6.65664 3.81464 9.20371C7.32746 12.7242 10.1583 12.4583 10.2804 12.4453C10.5464 12.4134 10.8013 12.3497 11.0604 12.2489C11.3387 12.1399 11.5989 11.992 11.8244 11.8151L11.836 11.8253L12.3704 11.3008C12.7561 10.9134 12.7672 10.2945 12.3954 9.92067Z" fill="#DE031C"/>
</symbol><symbol id="viber" viewBox="0 0 20 22">
<path d="M17.1475 15.2312C16.8973 15.9306 15.9043 16.5107 15.1123 16.6801C14.5704 16.7943 13.8627 16.8854 11.4801 15.9075C8.43249 14.6575 6.46989 11.5916 6.31693 11.3927C6.17045 11.1938 5.08545 9.76931 5.08545 8.29604C5.08545 6.82278 5.84119 6.10539 6.14582 5.79739C6.396 5.54458 6.80952 5.42908 7.20619 5.42908C7.33452 5.42908 7.44989 5.43549 7.5536 5.44063C7.85823 5.45346 8.01119 5.47143 8.21212 5.94754C8.4623 6.54429 9.07156 8.01756 9.14415 8.16899C9.21804 8.32043 9.29193 8.52576 9.18823 8.72468C9.091 8.93001 9.00545 9.02113 8.85249 9.19566C8.69952 9.37019 8.55434 9.50366 8.40137 9.69103C8.26137 9.85401 8.10323 10.0285 8.27952 10.3301C8.45582 10.6253 9.06508 11.6096 9.96212 12.4001C11.1197 13.4204 12.0582 13.7464 12.394 13.885C12.6442 13.9876 12.9423 13.9632 13.1251 13.7707C13.3571 13.5231 13.6436 13.1124 13.9353 12.7081C14.1427 12.4181 14.4045 12.3822 14.6793 12.4848C14.9593 12.5811 16.441 13.3062 16.7456 13.4563C17.0503 13.6078 17.2512 13.6796 17.3251 13.8067C17.3977 13.9337 17.3977 14.5305 17.1475 15.2312Z" fill="#FAFAFA"/>
<path d="M12.2222 0H7.7778C3.48906 0 0 3.4546 0 7.70098V11.0014C0 13.9826 1.7365 16.6881 4.44445 17.9607V21.6361C4.44445 21.9552 4.84765 22.122 5.0767 21.8954L8.30152 18.7024H12.2222C16.5109 18.7024 20 15.2478 20 11.0014V7.70098C20 3.4546 16.5109 0 12.2222 0Z" fill="#665CAC"/>
<path d="M5.55554 17.9606C2.8476 16.688 1.1111 13.9826 1.1111 11.0014V7.70094C1.1111 3.4546 4.6002 0 8.88889 0H7.77779C3.48905 0 0 3.4546 0 7.70098V11.0014C0 13.9826 1.7365 16.6881 4.44444 17.9607V21.6361C4.44444 21.9552 4.84765 22.122 5.0767 21.8954L5.55554 21.4213V17.9606Z" fill="#523494"/>
<path d="M15.5498 13.3082L15.218 11.5286C15.1905 11.3816 15.0755 11.2659 14.9274 11.2366L12.3177 10.7199C12.1965 10.696 12.0716 10.7335 11.9843 10.8198L10.924 11.8695C9.13765 11.0771 8.14621 10.0934 7.27386 8.24901L8.3307 7.2028C8.41792 7.1164 8.4558 6.9925 8.43163 6.87271L7.9097 4.28904C7.88008 4.1425 7.76327 4.02853 7.61477 4.00139L5.81723 3.67293C5.76802 3.66398 5.71733 3.66492 5.66847 3.67592C5.19385 3.78266 4.76079 4.01941 4.41608 4.36076C3.81921 4.95166 3.59109 5.81391 3.75646 6.8543C4.03405 8.60132 4.89861 11.0326 6.49372 12.6181L6.51551 12.6395C8.11577 14.2175 10.5716 15.0735 12.3364 15.3484C12.5587 15.383 12.7728 15.4002 12.9781 15.4002C13.7434 15.4002 14.3845 15.1612 14.8552 14.6953C15.1999 14.354 15.4392 13.9253 15.5469 13.4555C15.5579 13.4071 15.5589 13.357 15.5498 13.3082Z" fill="white"/>
<path d="M8.11186 7.67817L8.48029 7.31338L8.48068 7.31299L8.11182 7.67812L8.11186 7.67817Z" fill="#E5E5E5"/>
<path d="M12.205 11.0001L11.833 11.3684L11.8331 11.3685L12.2051 11.0002L12.205 11.0001Z" fill="#E5E5E5"/>
<path d="M13.9271 14.9678C13.7178 14.9678 13.4995 14.9503 13.2729 14.915C11.4739 14.6348 8.97022 13.7621 7.3388 12.1534L7.31658 12.1316C5.69045 10.5152 4.80908 8.03669 4.52609 6.25569C4.3899 5.39879 4.51581 4.66053 4.89006 4.09082C4.74674 4.18549 4.61223 4.29408 4.48901 4.41607C3.88053 5.01846 3.64797 5.89749 3.81656 6.95812C4.09955 8.73912 4.98093 11.2177 6.60706 12.834L6.62928 12.8558C8.26065 14.4646 10.7643 15.3372 12.5634 15.6174C12.79 15.6528 13.0083 15.6703 13.2176 15.6703C13.9977 15.6703 14.6513 15.4267 15.1312 14.9516C15.2544 14.8297 15.364 14.6965 15.4597 14.5546C15.0348 14.8282 14.5172 14.9678 13.9271 14.9678Z" fill="#E5E5E5"/>
<path d="M10.9114 5.98633C10.7036 5.98633 10.5352 6.1531 10.5352 6.3588C10.5352 6.5645 10.7036 6.73127 10.9114 6.73127C11.7413 6.73127 12.4164 7.39966 12.4164 8.22125C12.4164 8.4242 12.5876 8.59372 12.7926 8.59372C12.9977 8.59372 13.1689 8.4242 13.1689 8.22125C13.1689 6.98887 12.1562 5.98633 10.9114 5.98633Z" fill="white"/>
<path d="M10.9117 4.49634C10.7726 4.49634 10.6321 4.50398 10.4942 4.51903C10.2877 4.5416 10.1387 4.72565 10.1615 4.93018C10.1843 5.1347 10.3706 5.28178 10.5768 5.25957C10.6873 5.24748 10.8 5.24133 10.9117 5.24133C12.5715 5.24133 13.9218 6.5781 13.9218 8.22123C13.9218 8.33187 13.9155 8.44343 13.9033 8.55289C13.8808 8.75458 14.0322 8.94182 14.236 8.96403C14.4398 8.98625 14.6288 8.83641 14.6513 8.63464C14.6665 8.49812 14.6743 8.35906 14.6743 8.22123C14.6743 6.16735 12.9864 4.49634 10.9117 4.49634Z" fill="white"/>
<path d="M10.9132 3.00635C10.7787 3.00635 10.6425 3.01141 10.5085 3.02149C10.3013 3.03703 10.146 3.21598 10.1617 3.42107C10.1774 3.6262 10.3588 3.77992 10.5653 3.76438C10.6805 3.7557 10.7976 3.75133 10.9132 3.75133C13.4028 3.75133 15.4282 5.7565 15.4282 8.22121C15.4282 8.56994 15.3876 8.9171 15.3074 9.253C15.2614 9.44547 15.3812 9.64554 15.574 9.69783C15.7768 9.75282 15.9914 9.62691 16.0397 9.42435C16.1333 9.03237 16.1807 8.6276 16.1807 8.22121C16.1807 5.34571 13.8177 3.00635 10.9132 3.00635Z" fill="white"/>
</symbol><symbol id="whatsapp" viewBox="0 0 22 22">
<path d="M11.0027 0H10.9973C4.93213 0 0 4.9335 0 11C0 13.4062 0.7755 15.6365 2.09413 17.4474L0.72325 21.5339L4.95138 20.1823C6.69075 21.3345 8.76562 22 11.0027 22C17.0679 22 22 17.0651 22 11C22 4.93488 17.0679 0 11.0027 0Z" fill="#4CAF50"/>
<path d="M17.4033 15.5331C17.1379 16.2825 16.0846 16.904 15.2445 17.0855C14.6698 17.2079 13.919 17.3055 11.3918 16.2578C8.15914 14.9185 6.07739 11.6336 5.91514 11.4205C5.75976 11.2074 4.60889 9.68113 4.60889 8.10263C4.60889 6.52413 5.41051 5.75551 5.73364 5.42551C5.99901 5.15463 6.43764 5.03088 6.85839 5.03088C6.99451 5.03088 7.11689 5.03776 7.22689 5.04326C7.55001 5.05701 7.71226 5.07626 7.92539 5.58638C8.19076 6.22576 8.83701 7.80426 8.91401 7.96651C8.99239 8.12876 9.07076 8.34876 8.96076 8.56188C8.85764 8.78188 8.76689 8.87951 8.60464 9.06651C8.44239 9.25351 8.28839 9.39651 8.12614 9.59726C7.97764 9.77188 7.80989 9.95888 7.99689 10.282C8.18389 10.5983 8.83014 11.6529 9.78164 12.4999C11.0095 13.593 12.005 13.9423 12.3611 14.0908C12.6265 14.2008 12.9428 14.1746 13.1366 13.9684C13.3828 13.703 13.6866 13.263 13.996 12.8299C14.216 12.5191 14.4938 12.4806 14.7853 12.5906C15.0823 12.6938 16.6539 13.4706 16.977 13.6315C17.3001 13.7938 17.5133 13.8708 17.5916 14.0069C17.6686 14.143 17.6686 14.7824 17.4033 15.5331Z" fill="#FAFAFA"/>
</symbol></svg>