<?xml version="1.0" encoding="UTF-8"?><!DOCTYPE svg PUBLIC "-//W3C//DTD SVG 1.1//EN" "http://www.w3.org/Graphics/SVG/1.1/DTD/svg11.dtd"><svg xmlns="http://www.w3.org/2000/svg" xmlns:xlink="http://www.w3.org/1999/xlink"><defs/><symbol id="arrow-down" viewBox="0 0 451.847 451.847">
<g>
	<path d="M225.923,354.706c-8.098,0-16.195-3.092-22.369-9.263L9.27,151.157c-12.359-12.359-12.359-32.397,0-44.751
		c12.354-12.354,32.388-12.354,44.748,0l171.905,171.915l171.906-171.909c12.359-12.354,32.391-12.354,44.744,0
		c12.365,12.354,12.365,32.392,0,44.751L248.292,345.449C242.115,351.621,234.018,354.706,225.923,354.706z"/>
</g>
<g>
</g>
<g>
</g>
<g>
</g>
<g>
</g>
<g>
</g>
<g>
</g>
<g>
</g>
<g>
</g>
<g>
</g>
<g>
</g>
<g>
</g>
<g>
</g>
<g>
</g>
<g>
</g>
<g>
</g>
</symbol><symbol id="left-arrow" viewBox="0 0 64 64"><path d="m54 30h-39.899l15.278-14.552c.8-.762.831-2.028.069-2.828-.761-.799-2.027-.831-2.828-.069l-17.448 16.62c-.755.756-1.172 1.76-1.172 2.829 0 1.068.417 2.073 1.207 2.862l17.414 16.586c.387.369.883.552 1.379.552.528 0 1.056-.208 1.449-.621.762-.8.731-2.065-.069-2.827l-15.342-14.552h39.962c1.104 0 2-.896 2-2s-.896-2-2-2z"/></symbol><symbol id="mark" viewBox="0 0 240.608 240.608">
<path style="fill:inherit;" d="M208.789,29.972l31.819,31.82L91.763,210.637L0,118.876l31.819-31.82l59.944,59.942L208.789,29.972z"/>
<g>
</g>
<g>
</g>
<g>
</g>
<g>
</g>
<g>
</g>
<g>
</g>
<g>
</g>
<g>
</g>
<g>
</g>
<g>
</g>
<g>
</g>
<g>
</g>
<g>
</g>
<g>
</g>
<g>
</g>
</symbol><symbol id="plus" viewBox="0 0 426.66667 426.66667"><path d="m405.332031 192h-170.664062v-170.667969c0-11.773437-9.558594-21.332031-21.335938-21.332031-11.773437 0-21.332031 9.558594-21.332031 21.332031v170.667969h-170.667969c-11.773437 0-21.332031 9.558594-21.332031 21.332031 0 11.777344 9.558594 21.335938 21.332031 21.335938h170.667969v170.664062c0 11.777344 9.558594 21.335938 21.332031 21.335938 11.777344 0 21.335938-9.558594 21.335938-21.335938v-170.664062h170.664062c11.777344 0 21.335938-9.558594 21.335938-21.335938 0-11.773437-9.558594-21.332031-21.335938-21.332031zm0 0"/></symbol><symbol id="search" viewBox="0 0 14 14">
<path d="M10.2658 9.02871H9.61703L9.3871 8.80712C9.90029 8.21128 10.2754 7.50943 10.4855 6.75181C10.6956 5.99419 10.7355 5.19952 10.6024 4.42467C10.2165 2.14317 8.31138 0.321248 6.01211 0.0422157C5.20377 -0.0599876 4.38275 0.0239732 3.61187 0.287673C2.84099 0.551373 2.14068 0.987823 1.56454 1.56363C0.988403 2.13943 0.551697 2.83932 0.287842 3.60975C0.0239873 4.38018 -0.0600228 5.20072 0.0422405 6.00859C0.321437 8.3065 2.14442 10.2105 4.42726 10.5962C5.20257 10.7292 5.99771 10.6893 6.75577 10.4793C7.51384 10.2693 8.21609 9.89449 8.81229 9.3816L9.034 9.61139V10.2597L12.524 13.7476C12.8606 14.0841 13.4108 14.0841 13.7475 13.7476C14.0842 13.4112 14.0842 12.8613 13.7475 12.5248L10.2658 9.02871ZM5.33876 9.02871C3.29406 9.02871 1.64351 7.37913 1.64351 5.33563C1.64351 3.29212 3.29406 1.64255 5.33876 1.64255C7.38346 1.64255 9.034 3.29212 9.034 5.33563C9.034 7.37913 7.38346 9.02871 5.33876 9.02871Z" fill="#5A5A5A"/>
</symbol></svg>