<svg width="14" height="10" viewBox="0 0 14 10" fill="none" xmlns="http://www.w3.org/2000/svg">
<path d="M13.8768 0.703369L9.63086 4.92194L13.8768 9.1405C13.9535 8.98008 14.0001 8.80272 14.0001 8.61334V1.23053C14.0001 1.04112 13.9535 0.863795 13.8768 0.703369Z" fill="#DE031C"/>
<path d="M12.7693 0H1.23029C1.04088 0 0.863551 0.0465665 0.703125 0.12332L6.12985 5.5227C6.60968 6.00253 7.38996 6.00253 7.86979 5.5227L13.2965 0.12332C13.1361 0.0465665 12.9588 0 12.7693 0Z" fill="#DE031C"/>
<path d="M0.12332 0.703369C0.0465664 0.863795 0 1.04112 0 1.23053V8.61334C0 8.80275 0.0465664 8.9801 0.12332 9.1405L4.36923 4.92194L0.12332 0.703369Z" fill="#DE031C"/>
<path d="M9.0506 5.50195L8.44977 6.10278C7.65027 6.90228 6.34934 6.90228 5.54983 6.10278L4.94904 5.50195L0.703125 9.72052C0.863551 9.79727 1.04088 9.84384 1.23029 9.84384H12.7693C12.9588 9.84384 13.1361 9.79727 13.2965 9.72052L9.0506 5.50195Z" fill="#DE031C"/>
</svg>
