<svg width="11" height="15" viewBox="0 0 11 15" fill="none" xmlns="http://www.w3.org/2000/svg">
<path d="M5.5 0C2.46728 0 0 2.43688 0 5.43219C0 9.14946 4.92196 14.6066 5.13152 14.8371C5.32835 15.0537 5.67201 15.0533 5.86848 14.8371C6.07804 14.6066 11 9.14946 11 5.43219C10.9999 2.43688 8.53269 0 5.5 0ZM5.5 8.16527C3.97416 8.16527 2.73284 6.93922 2.73284 5.43219C2.73284 3.92516 3.97419 2.69913 5.5 2.69913C7.02581 2.69913 8.26713 3.92519 8.26713 5.43222C8.26713 6.93925 7.02581 8.16527 5.5 8.16527Z" fill="#DE031C"/>
</svg>
