<?xml version="1.0" encoding="utf-8"?>
<!-- Generator: Adobe Illustrator 22.0.0, SVG Export Plug-In . SVG Version: 6.00 Build 0)  -->
<svg version="1.1" xmlns="http://www.w3.org/2000/svg" xmlns:xlink="http://www.w3.org/1999/xlink" x="0px" y="0px"
	 viewBox="0 0 1560.5 1010.5" style="enable-background:new 0 0 1560.5 1010.5;" xml:space="preserve">
<style type="text/css">
	.st0{fill:#C9092E;}
</style>
<g id="Направляющие_для_монтажной_области">
</g>
<g id="Слой_1">
	<g>
		<g>
			<path class="st0" d="M913,525c1.9,2.8,2.8,5.7,2.8,8.5c0,2.8-0.6,5.6-1.9,8.5c-1.3,2.8-2.9,5.5-4.9,8c-2,2.5-4,5-5.9,7.5
				c-13.2,18.8-25.2,38.8-36,60c-10.8,21.2-22.8,45.3-36,72.3c-8.8,18-15.6,33.6-22.8,49.7c-8.4,18.5-15.3,34.2-20.4,45.8
				c5.5-1.7,13.1-4.3,21.6-8.4c3.1-1.5,11.3-5.5,24.7-15c8.7-6.1,20.1-14.8,32.8-26.5c1.3,5.2,2.6,10.5,3.8,15.7
				c-16.1,13.7-36.8,28.7-62.7,41.5c-9.6,4.8-18.9,8.7-27.8,12c-4.6,10.8-9.1,21.8-13.7,32.9c-7.7,18.5-9.2,22.7-13.8,33.7
				c-7.9,18.8-12.5,29.7-19.1,42.9c-8.1,16.1-24.5,46.5-28.5,44.8c-0.9-0.4-1.2-2.3,0.7-13.5c3.6-21.5,8.7-37.6,10-41.6
				c5.4-17.3,2.5-10.6,11.4-41.3c4-13.9,9.3-31.3,15.8-51.3c-21.7,3.1-43.1,6.8-64.3,10.8c-21.2,4.1-43.1,7.8-65.7,11.3
				c-0.9,0.3-3.8,0.8-8.5,1.4c-4.7,0.6-9.7,1.4-15.1,2.4c-6.3,1.3-13.3,2.5-21.2,3.8c-18.8,19.8-37.6,39.4-56.3,58.8
				c-18.7,19.5-37.9,39.5-57.7,60.3c-5.3,6-10.8,11.8-16.2,17.7c-5.5,5.8-11.1,11.7-16.7,17.7c-4.7,4.4-8.9,8.2-12.5,11.3
				c-3.6,3.1-5.4,4.4-5.4,3.8c0-0.9,0.6-2.6,1.9-4.9c1.3-2.4,2.7-4.9,4.2-7.5c1.6-2.7,3.1-5.3,4.7-7.8c1.6-2.5,3-4.7,4.2-6.6
				c16.9-23.5,34.5-46.7,52.7-69.4c18.2-22.8,37.5-45.4,57.9-68c-23.5,2.5-47.2,5.3-70.9,8.5c-23.7,3.1-48.7,5.8-75.1,8
				c-12.2,0.9-24.7,1.7-37.4,2.4c-12.7,0.6-25.7,0.6-38.8,0c-0.3,0-1.7-0.2-4.2-0.5c-2.5-0.3-3.4-0.8-2.8-1.4
				c0.3-0.9,2.2-1.8,5.6-2.6c3.5-0.8,7.2-1.6,11.3-2.4c4.1-0.8,8-1.4,11.8-1.9c3.8-0.5,6.4-0.9,8-1.2c25.4-4.1,50.9-7.9,76.5-11.5
				c25.6-3.6,53.1-7.8,82.6-12.5c9.1-1.6,18.2-3,27.3-4.2c9.1-1.3,18.2-2.7,27.3-4.2c6.3-6.6,12.5-13.3,18.6-20
				c6.1-6.7,12.3-13.3,18.6-19.5c24.8-26.4,50.1-51.9,76-76.7c25.9-24.8,53.1-49.4,81.7-73.9c14.1-11.9,28.2-23.8,42.4-35.5
				c14.1-11.8,28.6-23.1,43.3-34.1c8.8-6.9,17.8-13.7,27.1-20.5c9.3-6.7,18.9-13.3,29-19.5c4.1-2.8,8.5-4.5,13.4-4.9
				C905.4,517.2,909.6,519.6,913,525z M749.2,793.8c0.3-1.6,1.4-4.5,3.3-8.9c1.9-4.4,4-9.7,6.4-15.8c2.4-6.1,5-12.6,8-19.5
				c3-6.9,5.8-13.6,8.5-20c2.7-6.4,5.2-12.3,7.5-17.7c2.4-5.3,4.2-9.6,5.4-12.7c3.8-8.5,8.1-18,12.9-28.7
				c4.9-10.7,10-21.4,15.3-32.2c5.3-10.8,10.7-21.4,16-31.8c5.3-10.4,10.2-19.6,14.6-27.8c-20.7,15.7-42.1,33-64.3,51.8
				c-22.1,18.8-44.2,38.5-66.1,59.1c-22,20.6-43.5,41.6-64.5,63.1c-21,21.5-40.8,42.8-59.3,63.8c15.7-2.2,31.1-4.5,46.1-6.8
				c15.1-2.4,30.4-4.6,46.1-6.8c10.7-1.6,21.3-3.1,31.8-4.5C727.5,796.8,738.2,795.4,749.2,793.8z"/>
			<path class="st0" d="M963.7,672.6c0.3,3.5-0.3,6.6-1.9,9.4c-1.6,2.8-3.5,5.4-5.9,7.8c-2.4,2.4-4.9,4.6-7.5,6.8
				c-2.7,2.2-4.8,4.7-6.4,7.5c-3.1,5.3-5.9,11-8.2,16.9c-2.4,6-4.5,11.9-6.4,17.9c-1.9,6.6-3.7,12.9-5.4,19.1
				c-1.7,6.1-3.4,12.3-4.9,18.6c-3.1,11-8,21.3-14.6,31.1c-6.6,9.7-14.9,17.3-25,22.6c-11.9,6-23.7,8.5-35.3,7.5
				c-6.3-0.9-11.5-2.7-15.5-5.2c-0.3,0-1.2-0.5-2.8-1.4c-1.6-0.9-3.2-1.9-4.9-2.8c-1.7-0.9-3.1-2-4.2-3.1c-1.1-1.1-1.5-2-1.2-2.6
				c0.3-0.6,2-0.4,5.2,0.7c3.1,1.1,5,1.6,5.7,1.6c4.1,1.3,8.6,1.9,13.7,1.9c9.1-0.6,17.1-3.6,24-8.9c6-4.4,11.4-10.2,16.2-17.4
				c4.9-7.2,7.8-14.4,8.7-21.7c1.2-7.2,2.4-14.7,3.5-22.4c1.1-7.7,2.1-15.6,3.1-23.8c-7.8,7.2-17.6,14.9-29.2,23.1
				c-11.6,8.2-23,15.6-34.1,22.4c-11.1,6.8-20.8,12.2-29,16.5c-8.2,4.2-12.7,5.9-13.7,4.9c-0.6-0.9,3.5-4.8,12.5-11.5
				c8.9-6.7,19.8-15.1,32.5-25c12.7-9.9,25.7-20.8,39.1-32.7c13.3-11.9,24.1-23.7,32.2-35.3c2.8-4.4,5.6-8.7,8.5-12.9
				c2.8-4.2,6-8.5,9.4-12.9c3.4-3.5,7.3-6.4,11.5-8.9c4.2-2.5,8.9-3.8,13.9-3.8c4.4,0,8.2,1.6,11.3,4.7
				C961.7,664.5,963.4,668.2,963.7,672.6z"/>
			<path class="st0" d="M1064.5,672.6c0.3,3.5-0.3,6.6-1.9,9.4c-1.6,2.8-3.5,5.4-5.9,7.8c-2.4,2.4-4.9,4.6-7.5,6.8
				c-2.7,2.2-4.8,4.7-6.4,7.5c-3.1,5.3-5.9,11-8.2,16.9c-2.4,6-4.5,11.9-6.4,17.9c-1.9,6.6-3.7,12.9-5.4,19.1
				c-1.7,6.1-3.4,12.3-4.9,18.6c-3.1,11-8,21.3-14.6,31.1c-6.6,9.7-14.9,17.3-25,22.6c-11.9,6-23.7,8.5-35.3,7.5
				c-6.3-0.9-11.5-2.7-15.5-5.2c-0.3,0-1.2-0.5-2.8-1.4c-1.6-0.9-3.2-1.9-4.9-2.8c-1.7-0.9-3.1-2-4.2-3.1c-1.1-1.1-1.5-2-1.2-2.6
				c0.3-0.6,2-0.4,5.2,0.7c3.1,1.1,5,1.6,5.7,1.6c4.1,1.3,8.6,1.9,13.7,1.9c9.1-0.6,17.1-3.6,24-8.9c6-4.4,11.4-10.2,16.2-17.4
				c4.9-7.2,7.8-14.4,8.7-21.7c1.2-7.2,2.4-14.7,3.5-22.4c1.1-7.7,2.1-15.6,3.1-23.8c-7.8,7.2-17.6,14.9-29.2,23.1
				c-11.6,8.2-23,15.6-34.1,22.4c-11.1,6.8-20.8,12.2-29,16.5c-8.2,4.2-12.7,5.9-13.7,4.9c-0.6-0.9,3.5-4.8,12.5-11.5
				c8.9-6.7,19.8-15.1,32.5-25c12.7-9.9,25.7-20.8,39.1-32.7c13.3-11.9,24.1-23.7,32.2-35.3c2.8-4.4,5.6-8.7,8.5-12.9
				c2.8-4.2,6-8.5,9.4-12.9c3.4-3.5,7.3-6.4,11.5-8.9c4.2-2.5,8.9-3.8,13.9-3.8c4.4,0,8.2,1.6,11.3,4.7
				C1062.4,664.5,1064.2,668.2,1064.5,672.6z"/>
			<path class="st0" d="M1200.1,671.7c4.1,1.3,7.4,3.4,9.9,6.4c2.5,3,3.6,4.3,3.3,4c-0.9-0.3-2.3-0.7-4-1.2
				c-1.7-0.5-4.2-0.9-7.3-1.2c-6-0.6-11.9-0.1-17.9,1.6c-6,1.7-11.9,4.2-17.9,7.5c-6,3.3-12,7.2-18.1,11.8
				c-6.1,4.6-12.3,9.3-18.6,14.4c-2.8,2.5-8,7.5-15.5,15.1c-7.5,7.5-15.1,16.2-22.8,26.1c-7.7,9.9-14.4,20.2-20.2,31.1
				c-5.8,10.8-8.7,20.6-8.7,29.4c9.1-1.3,19.8-5.7,32-13.4c12.2-7.7,24.2-16.8,35.8-27.3c11.6-10.5,22.1-21.7,31.5-33.4
				c9.4-11.8,15.8-22.5,19.3-32.2c1.2-3.1,2-6.2,2.4-9.2c0.3-3,0-6.2-0.9-9.7c-0.6-1.9-0.9-3-0.9-3.3c0.3-1.3,1.6-0.5,4,2.1
				c2.4,2.7,4,5.9,4.9,9.7c3.8,14.1,2,28.7-5.4,43.8c-7.4,15.1-17.6,29-30.6,41.9c-13,12.9-27.3,24-42.8,33.4
				c-15.5,9.4-29.6,15.7-42.1,18.8c-8.5,2.5-16.5,2.5-24,0c-6.3-2.5-10.7-6.9-13.2-13.2c-2.5-6.3-3.3-12.5-2.4-18.8
				c1.2-8.2,3.5-15.9,6.8-23.3c3.3-7.4,7.5-14.7,12.5-21.9c4.4-6.3,9.9-13.2,16.5-20.7c6.6-7.5,14-15,22.4-22.4
				c8.3-7.4,17.3-14.4,26.8-21.2c9.6-6.7,19.2-12.3,29-16.7c9.7-4.4,19.4-7.5,29-9.2C1182.1,668.8,1191.3,669.2,1200.1,671.7z"/>
			<path class="st0" d="M1461.8,419.8c0.6,0.6,0.7,1.6,0.2,3.1c-0.5,1.4-1.1,3-1.9,4.7c-0.8,1.7-1.6,3.4-2.4,4.9
				c-0.8,1.6-1.3,2.7-1.6,3.3c-9.7,17.6-20,34.7-30.8,51.3c-10.8,16.6-21.7,33.3-32.7,49.9c-11.9,17.6-23.9,34.9-36,52
				c-12.1,17.1-24.2,34.3-36.5,51.5c-16,22.3-32.2,44.3-48.5,65.9c-16.3,21.7-32.6,43.5-49,65.4c-2.5,3.5-5.1,6.9-7.8,10.4
				c-2.7,3.5-5.3,6.9-7.8,10.4c21.7-15.4,43.6-29.8,65.9-43.3c0.3-0.3,1.3-1,3.1-2.1c1.7-1.1,3.7-2.2,5.9-3.3c2.2-1.1,4.2-2,6.1-2.8
				c1.9-0.8,3.1-1,3.8-0.7c0.6,0.3,0.2,1-1.2,2.1c-1.4,1.1-2.9,2.4-4.5,4c-5.6,5-11.4,9.8-17.2,14.4c-5.8,4.6-11.5,9.2-17.2,13.9
				c-8.5,6.6-16.8,13.2-25,19.8c-8.2,6.6-16.3,13.5-24.5,20.7c-3.1,2.5-6.2,5.2-9.2,8c-3,2.8-6,5.7-9.2,8.5c-2.5,2.2-5.2,4.1-8,5.7
				c-2.8,1.6-6,1.7-9.4,0.5c-6-1.9-9.1-5.6-9.4-11.3c-0.3-4.4,0.9-9.1,3.5-14.1c2.7-5,5.1-9.3,7.3-12.7c17.3-27.3,35.9-54.4,56-81.4
				c15.7-21,30.4-41,44-60c13.7-19,28-38.5,43.1-58.6c12.5-16.9,25.2-33.7,37.9-50.4c12.7-16.6,25.8-33.1,39.3-49.4
				c9.4-11.3,18.7-22.8,28-34.4c9.3-11.6,19.1-22.6,29.4-33c0.3-0.3,1.2-1.3,2.8-2.8c1.6-1.6,3.2-3.2,4.9-4.9c1.7-1.7,3.4-3.1,4.9-4
				C1460.1,419.8,1461.2,419.5,1461.8,419.8z"/>
			<path class="st0" d="M1533.8,419.8c0.6,0.6,0.7,1.6,0.2,3.1c-0.5,1.4-1.1,3-1.9,4.7c-0.8,1.7-1.6,3.4-2.4,4.9
				c-0.8,1.6-1.3,2.7-1.6,3.3c-9.7,17.6-20,34.7-30.8,51.3c-10.8,16.6-21.7,33.3-32.7,49.9c-11.9,17.6-23.9,34.9-36,52
				c-12.1,17.1-24.2,34.3-36.5,51.5c-16,22.3-32.2,44.3-48.5,65.9c-16.3,21.7-32.6,43.5-49,65.4c-2.5,3.5-5.1,6.9-7.8,10.4
				c-2.7,3.5-5.3,6.9-7.8,10.4c21.7-15.4,43.6-29.8,65.9-43.3c0.3-0.3,1.3-1,3.1-2.1c1.7-1.1,3.7-2.2,5.9-3.3c2.2-1.1,4.2-2,6.1-2.8
				c1.9-0.8,3.1-1,3.8-0.7c0.6,0.3,0.2,1-1.2,2.1c-1.4,1.1-2.9,2.4-4.5,4c-5.6,5-11.4,9.8-17.2,14.4c-5.8,4.6-11.5,9.2-17.2,13.9
				c-8.5,6.6-16.8,13.2-25,19.8c-8.2,6.6-16.3,13.5-24.5,20.7c-3.1,2.5-6.2,5.2-9.2,8c-3,2.8-6,5.7-9.2,8.5c-2.5,2.2-5.2,4.1-8,5.7
				c-2.8,1.6-6,1.7-9.4,0.5c-6-1.9-9.1-5.6-9.4-11.3c-0.3-4.4,0.9-9.1,3.5-14.1c2.7-5,5.1-9.3,7.3-12.7c17.3-27.3,35.9-54.4,56-81.4
				c15.7-21,30.4-41,44-60c13.7-19,28-38.5,43.1-58.6c12.5-16.9,25.2-33.7,37.9-50.4c12.7-16.6,25.8-33.1,39.3-49.4
				c9.4-11.3,18.7-22.8,28-34.4c9.3-11.6,19.1-22.6,29.4-33c0.3-0.3,1.2-1.3,2.8-2.8c1.6-1.6,3.2-3.2,4.9-4.9c1.7-1.7,3.4-3.1,4.9-4
				C1532.1,419.8,1533.2,419.5,1533.8,419.8z"/>
		</g>
		<path class="st0" d="M1441.6,624.3c9.3-3,22.9-1.8,27.4,6c4.9,8.5-3.5,20.9-10.2,30.7c-3.6,5.3-9.9,13.4-28.6,27.9
			c-11.1,8.6-34.7,25.8-36.9,23.2c-1.2-1.4,6.3-10.3,21.3-27.9c7.7-9.1,14.3-16.5,18.7-21.5c-6.8-5-10.6-12.8-9.6-20.3
			C1425.3,629.5,1439.7,624.9,1441.6,624.3z"/>
		<path class="st0" d="M1251.1,651.7c-66.7-2.9-134.1-5.5-202.1-7.7c-59.5-1.9-118.5-3.5-177-4.9c1.8-3.4,3.6-6.9,5.6-10.5
			c1.9-3.4,3.7-6.6,5.6-9.8c86.6-2.6,179.9-0.9,278.8,7c35.6,2.8,70.2,6.4,103.8,10.5c-0.5,1.9-1.7,5.6-4.9,9.1
			C1257.2,649.5,1253,651.1,1251.1,651.7z"/>
		<path class="st0" d="M744.4,611.9c-5.5,3.5-11.7,8-18.1,13.9c-4.4,4.1-8.1,8.1-11.2,11.8c-76.9,0.9-153.8,1.9-230.7,2.8
			c-29.4-1.7-65.2-6.7-104.5-18.8c-82.7-25.5-140.2-70.2-172.9-100.4c30.5,17.4,57.4,29.8,78.1,38.3c21.1,8.8,117.5,47.5,248.8,54.4
			c22.4,1.2,42.4,1.1,82.6,1C669.9,615,713.9,613.4,744.4,611.9z"/>
		<path class="st0" d="M863.6,524.1c-120.2-5.8-241.2-11.2-363.1-16C332,501.4,165.2,495.9,0,491.4c173.8-2.4,319.4-2.2,426.6-1.4
			c374.5,2.8,510.3,14.5,557.6,18.8c146.1,13.4,265.4,32.1,345.2,46.2c-4.7,4.9-9.4,9.8-14.1,14.6c-97.8-18.5-204.1-31.9-317.8-37.1
			c-23.2-1.1-46.1-1.7-68.7-2.1c-1.1-6.6-3.8-10.4-5.9-12.5C912.2,507,887.9,508.8,863.6,524.1z"/>
		<path class="st0" d="M249.5,519.9c-2,11.6,87.2,37.1,143.6,50.2c84.9,19.6,157.2,25.1,207,26.5c-8.5-6.9-12.4-13.5-11.8-19.5
			c1.8-18.6,46.2-33,133.1-43.2c-55.5-1.7-138.5-4.7-239.8-9.8C322.4,516.2,251.3,509.8,249.5,519.9z"/>
		<path class="st0" d="M654.5,596.8c-7.9-4.7-11.7-9.2-11.5-13.6c0.8-17.6,67.3-32.4,199.7-44.4c-16.2,8.6-33.9,19.3-52.3,32.4
			c-11.7,8.4-22.3,16.9-31.9,25.1C723.8,596.4,689.1,596.6,654.5,596.8z"/>
		<path class="st0" d="M889.2,602.5c8.2-0.3,17-0.3,26.1,0c10.7,0.3,20.9,1.1,30.3,2.1c-11.2-5.7-16.6-11-16.2-15.7
			c1.4-15.9,68.5-26,201.3-30.3c-41.5-4.4-85.6-7.6-132.3-8.9c-25.3-0.7-49.9-0.9-73.7-0.5C912.9,567,901,584.8,889.2,602.5z"/>
		<path class="st0" d="M1270.2,619.8c-42.4-5.1-87.2-9.3-134.3-12c-38-2.2-74.7-3.4-109.8-3.7c-5.4-4.1-7.8-7.8-7.3-11
			c2.9-17.7,97-20.7,282.3-8.9C1290.8,596.1,1280.5,607.9,1270.2,619.8z"/>
		<path class="st0" d="M586.9,262.1C410.3,329.3,237,397.2,66.9,465.6c74.8-22.3,149.6-44.6,224.4-66.9
			c135.8-7.2,300.8-3.7,485.1,26.5c102.7,16.8,196,39.5,278.8,64.1c13.7-74.5,42.1-179.6,104.5-292.7
			c46.9-84.9,99.5-149.8,143.6-196.5C1068.4,82.5,829.4,169.8,586.9,262.1z M1116.9,177c-11.7,12.8-27.5,25-47,26.5
			c-24.4,1.9-41.8-14-48.1-7.7c-9.4,9.5,25.3,49.4,16.7,59.2c-12.2,14.1-101-47.2-105.9-40.4c-5.1,6.9,83.8,74,77.4,84.3
			c-8.7,13.8-181.6-83-186.1-75.3c-4.7,8,181.1,116.8,172.9,133.1c-9.5,18.8-268.8-96.1-273.2-86.4c-4.5,10,268.2,135.9,260.7,154
			c-3.8,9.2-77.3-12.3-116.2-23.3c-28.7-8.5-58.3-16.8-88.7-24.8c-97.8-25.6-189.9-43.9-274.6-57.2c113.5-44.1,229.7-87.8,348.5-131
			c123.6-45,245.4-87.7,365.2-128.2C1186.9,90.1,1151.2,129,1116.9,177z"/>
		<path class="st0" d="M1139.6,263.5c49.3-15.6,103.8-30.3,163.1-42.5c94.9-19.6,181.9-28.7,257.9-32.1c-33.2,31-69.2,69-104.5,115
			c-62.5,81.3-102.1,160.5-127.5,223.7c-51.1-19.4-109.6-37.6-174.9-51.6c-27-5.8-53.1-10.3-78.1-13.9c23.1-2.3,57.6-4.8,99.7-4.2
			c74.2,1.1,122.7,11.2,123.4,7.7c0.7-3.8-55.7-20.6-120.6-30.7c-56.8-8.8-89.7-7.6-89.9-12.5c-0.4-7.7,80-18.2,122.7-23.7
			c98.4-12.8,150.6-14,150.5-18.1c0-4.8-69.2-10.3-138.7-9.8c-73.1,0.6-118,7.6-118.5,4.2c-0.6-4.3,69-19.4,138-30.7
			c105.9-17.2,165.2-17.7,165.2-23c-0.1-6-77.7-13.9-161-10.5c-74.7,3.1-122.5,13.9-123.4,9.8c-1.1-5.3,76.8-26.9,143.6-43.2
			c135.5-33.1,218.7-43,218.2-47.4c-0.6-4.9-107.7,3.2-206.3,14.6C1220.2,251.4,1172.3,258.3,1139.6,263.5z"/>
	</g>
</g>
</svg>
