<svg width="13" height="13" viewBox="0 0 13 13" fill="none" xmlns="http://www.w3.org/2000/svg">
<path d="M12.3954 9.92067L10.5234 8.04429C10.1506 7.67209 9.53314 7.6834 9.14729 8.07025L8.2042 9.01527C8.14462 8.98236 8.08295 8.94798 8.01811 8.9115C7.42256 8.58077 6.60745 8.12746 5.74971 7.26715C4.88943 6.40503 4.43673 5.58681 4.10573 4.98953C4.07081 4.92625 4.03734 4.86524 4.00429 4.80731L4.63724 4.17386L4.94843 3.86159C5.33486 3.47418 5.34552 2.8555 4.97353 2.48222L3.1016 0.605626C2.72962 0.23287 2.11188 0.244178 1.72545 0.631594L1.19787 1.1634L1.21229 1.17775C1.03539 1.40398 0.887563 1.66491 0.777556 1.94629C0.67615 2.21413 0.613015 2.46972 0.584147 2.72584C0.33697 4.77963 1.27337 6.65664 3.81464 9.20371C7.32746 12.7242 10.1583 12.4583 10.2804 12.4453C10.5464 12.4134 10.8013 12.3497 11.0604 12.2489C11.3387 12.1399 11.5989 11.992 11.8244 11.8151L11.836 11.8253L12.3704 11.3008C12.7561 10.9134 12.7672 10.2945 12.3954 9.92067Z" fill="#DE031C"/>
</svg>
