<svg width="14" height="14" viewBox="0 0 14 14" fill="none" xmlns="http://www.w3.org/2000/svg">
<path d="M10.2658 9.02871H9.61703L9.3871 8.80712C9.90029 8.21128 10.2754 7.50943 10.4855 6.75181C10.6956 5.99419 10.7355 5.19952 10.6024 4.42467C10.2165 2.14317 8.31138 0.321248 6.01211 0.0422157C5.20377 -0.0599876 4.38275 0.0239732 3.61187 0.287673C2.84099 0.551373 2.14068 0.987823 1.56454 1.56363C0.988403 2.13943 0.551697 2.83932 0.287842 3.60975C0.0239873 4.38018 -0.0600228 5.20072 0.0422405 6.00859C0.321437 8.3065 2.14442 10.2105 4.42726 10.5962C5.20257 10.7292 5.99771 10.6893 6.75577 10.4793C7.51384 10.2693 8.21609 9.89449 8.81229 9.3816L9.034 9.61139V10.2597L12.524 13.7476C12.8606 14.0841 13.4108 14.0841 13.7475 13.7476C14.0842 13.4112 14.0842 12.8613 13.7475 12.5248L10.2658 9.02871ZM5.33876 9.02871C3.29406 9.02871 1.64351 7.37913 1.64351 5.33563C1.64351 3.29212 3.29406 1.64255 5.33876 1.64255C7.38346 1.64255 9.034 3.29212 9.034 5.33563C9.034 7.37913 7.38346 9.02871 5.33876 9.02871Z" fill="#5A5A5A"/>
</svg>
