<svg width="20" height="22" viewBox="0 0 20 22" fill="none" xmlns="http://www.w3.org/2000/svg">
<path d="M17.1475 15.2312C16.8973 15.9306 15.9043 16.5107 15.1123 16.6801C14.5704 16.7943 13.8627 16.8854 11.4801 15.9075C8.43249 14.6575 6.46989 11.5916 6.31693 11.3927C6.17045 11.1938 5.08545 9.76931 5.08545 8.29604C5.08545 6.82278 5.84119 6.10539 6.14582 5.79739C6.396 5.54458 6.80952 5.42908 7.20619 5.42908C7.33452 5.42908 7.44989 5.43549 7.5536 5.44063C7.85823 5.45346 8.01119 5.47143 8.21212 5.94754C8.4623 6.54429 9.07156 8.01756 9.14415 8.16899C9.21804 8.32043 9.29193 8.52576 9.18823 8.72468C9.091 8.93001 9.00545 9.02113 8.85249 9.19566C8.69952 9.37019 8.55434 9.50366 8.40137 9.69103C8.26137 9.85401 8.10323 10.0285 8.27952 10.3301C8.45582 10.6253 9.06508 11.6096 9.96212 12.4001C11.1197 13.4204 12.0582 13.7464 12.394 13.885C12.6442 13.9876 12.9423 13.9632 13.1251 13.7707C13.3571 13.5231 13.6436 13.1124 13.9353 12.7081C14.1427 12.4181 14.4045 12.3822 14.6793 12.4848C14.9593 12.5811 16.441 13.3062 16.7456 13.4563C17.0503 13.6078 17.2512 13.6796 17.3251 13.8067C17.3977 13.9337 17.3977 14.5305 17.1475 15.2312Z" fill="#FAFAFA"/>
<path d="M12.2222 0H7.7778C3.48906 0 0 3.4546 0 7.70098V11.0014C0 13.9826 1.7365 16.6881 4.44445 17.9607V21.6361C4.44445 21.9552 4.84765 22.122 5.0767 21.8954L8.30152 18.7024H12.2222C16.5109 18.7024 20 15.2478 20 11.0014V7.70098C20 3.4546 16.5109 0 12.2222 0Z" fill="#665CAC"/>
<path d="M5.55554 17.9606C2.8476 16.688 1.1111 13.9826 1.1111 11.0014V7.70094C1.1111 3.4546 4.6002 0 8.88889 0H7.77779C3.48905 0 0 3.4546 0 7.70098V11.0014C0 13.9826 1.7365 16.6881 4.44444 17.9607V21.6361C4.44444 21.9552 4.84765 22.122 5.0767 21.8954L5.55554 21.4213V17.9606Z" fill="#523494"/>
<path d="M15.5498 13.3082L15.218 11.5286C15.1905 11.3816 15.0755 11.2659 14.9274 11.2366L12.3177 10.7199C12.1965 10.696 12.0716 10.7335 11.9843 10.8198L10.924 11.8695C9.13765 11.0771 8.14621 10.0934 7.27386 8.24901L8.3307 7.2028C8.41792 7.1164 8.4558 6.9925 8.43163 6.87271L7.9097 4.28904C7.88008 4.1425 7.76327 4.02853 7.61477 4.00139L5.81723 3.67293C5.76802 3.66398 5.71733 3.66492 5.66847 3.67592C5.19385 3.78266 4.76079 4.01941 4.41608 4.36076C3.81921 4.95166 3.59109 5.81391 3.75646 6.8543C4.03405 8.60132 4.89861 11.0326 6.49372 12.6181L6.51551 12.6395C8.11577 14.2175 10.5716 15.0735 12.3364 15.3484C12.5587 15.383 12.7728 15.4002 12.9781 15.4002C13.7434 15.4002 14.3845 15.1612 14.8552 14.6953C15.1999 14.354 15.4392 13.9253 15.5469 13.4555C15.5579 13.4071 15.5589 13.357 15.5498 13.3082Z" fill="white"/>
<path d="M8.11186 7.67817L8.48029 7.31338L8.48068 7.31299L8.11182 7.67812L8.11186 7.67817Z" fill="#E5E5E5"/>
<path d="M12.205 11.0001L11.833 11.3684L11.8331 11.3685L12.2051 11.0002L12.205 11.0001Z" fill="#E5E5E5"/>
<path d="M13.9271 14.9678C13.7178 14.9678 13.4995 14.9503 13.2729 14.915C11.4739 14.6348 8.97022 13.7621 7.3388 12.1534L7.31658 12.1316C5.69045 10.5152 4.80908 8.03669 4.52609 6.25569C4.3899 5.39879 4.51581 4.66053 4.89006 4.09082C4.74674 4.18549 4.61223 4.29408 4.48901 4.41607C3.88053 5.01846 3.64797 5.89749 3.81656 6.95812C4.09955 8.73912 4.98093 11.2177 6.60706 12.834L6.62928 12.8558C8.26065 14.4646 10.7643 15.3372 12.5634 15.6174C12.79 15.6528 13.0083 15.6703 13.2176 15.6703C13.9977 15.6703 14.6513 15.4267 15.1312 14.9516C15.2544 14.8297 15.364 14.6965 15.4597 14.5546C15.0348 14.8282 14.5172 14.9678 13.9271 14.9678Z" fill="#E5E5E5"/>
<path d="M10.9114 5.98633C10.7036 5.98633 10.5352 6.1531 10.5352 6.3588C10.5352 6.5645 10.7036 6.73127 10.9114 6.73127C11.7413 6.73127 12.4164 7.39966 12.4164 8.22125C12.4164 8.4242 12.5876 8.59372 12.7926 8.59372C12.9977 8.59372 13.1689 8.4242 13.1689 8.22125C13.1689 6.98887 12.1562 5.98633 10.9114 5.98633Z" fill="white"/>
<path d="M10.9117 4.49634C10.7726 4.49634 10.6321 4.50398 10.4942 4.51903C10.2877 4.5416 10.1387 4.72565 10.1615 4.93018C10.1843 5.1347 10.3706 5.28178 10.5768 5.25957C10.6873 5.24748 10.8 5.24133 10.9117 5.24133C12.5715 5.24133 13.9218 6.5781 13.9218 8.22123C13.9218 8.33187 13.9155 8.44343 13.9033 8.55289C13.8808 8.75458 14.0322 8.94182 14.236 8.96403C14.4398 8.98625 14.6288 8.83641 14.6513 8.63464C14.6665 8.49812 14.6743 8.35906 14.6743 8.22123C14.6743 6.16735 12.9864 4.49634 10.9117 4.49634Z" fill="white"/>
<path d="M10.9132 3.00635C10.7787 3.00635 10.6425 3.01141 10.5085 3.02149C10.3013 3.03703 10.146 3.21598 10.1617 3.42107C10.1774 3.6262 10.3588 3.77992 10.5653 3.76438C10.6805 3.7557 10.7976 3.75133 10.9132 3.75133C13.4028 3.75133 15.4282 5.7565 15.4282 8.22121C15.4282 8.56994 15.3876 8.9171 15.3074 9.253C15.2614 9.44547 15.3812 9.64554 15.574 9.69783C15.7768 9.75282 15.9914 9.62691 16.0397 9.42435C16.1333 9.03237 16.1807 8.6276 16.1807 8.22121C16.1807 5.34571 13.8177 3.00635 10.9132 3.00635Z" fill="white"/>
</svg>
