<svg width="22" height="22" viewBox="0 0 22 22" fill="none" xmlns="http://www.w3.org/2000/svg">
<path d="M11.0027 0H10.9973C4.93213 0 0 4.9335 0 11C0 13.4062 0.7755 15.6365 2.09413 17.4474L0.72325 21.5339L4.95138 20.1823C6.69075 21.3345 8.76562 22 11.0027 22C17.0679 22 22 17.0651 22 11C22 4.93488 17.0679 0 11.0027 0Z" fill="#4CAF50"/>
<path d="M17.4033 15.5331C17.1379 16.2825 16.0846 16.904 15.2445 17.0855C14.6698 17.2079 13.919 17.3055 11.3918 16.2578C8.15914 14.9185 6.07739 11.6336 5.91514 11.4205C5.75976 11.2074 4.60889 9.68113 4.60889 8.10263C4.60889 6.52413 5.41051 5.75551 5.73364 5.42551C5.99901 5.15463 6.43764 5.03088 6.85839 5.03088C6.99451 5.03088 7.11689 5.03776 7.22689 5.04326C7.55001 5.05701 7.71226 5.07626 7.92539 5.58638C8.19076 6.22576 8.83701 7.80426 8.91401 7.96651C8.99239 8.12876 9.07076 8.34876 8.96076 8.56188C8.85764 8.78188 8.76689 8.87951 8.60464 9.06651C8.44239 9.25351 8.28839 9.39651 8.12614 9.59726C7.97764 9.77188 7.80989 9.95888 7.99689 10.282C8.18389 10.5983 8.83014 11.6529 9.78164 12.4999C11.0095 13.593 12.005 13.9423 12.3611 14.0908C12.6265 14.2008 12.9428 14.1746 13.1366 13.9684C13.3828 13.703 13.6866 13.263 13.996 12.8299C14.216 12.5191 14.4938 12.4806 14.7853 12.5906C15.0823 12.6938 16.6539 13.4706 16.977 13.6315C17.3001 13.7938 17.5133 13.8708 17.5916 14.0069C17.6686 14.143 17.6686 14.7824 17.4033 15.5331Z" fill="#FAFAFA"/>
</svg>
