<?xml version="1.0" encoding="utf-8"?>
<!-- Generator: Adobe Illustrator 22.0.0, SVG Export Plug-In . SVG Version: 6.00 Build 0)  -->
<svg version="1.1" id="Слой_1" xmlns="http://www.w3.org/2000/svg" xmlns:xlink="http://www.w3.org/1999/xlink" x="0px" y="0px"
	 viewBox="0 0 19.9 11.3" style="enable-background:new 0 0 19.9 11.3;" xml:space="preserve">
<style type="text/css">
	.st0{fill:inherit;}
</style>
<title>icon_vk_cyr_black</title>
<g id="Слой_2_1_">
	<g id="Layer_1">
		<path class="st0" d="M9.7,11.3h1.2c0.2,0,0.4-0.1,0.5-0.2c0.1-0.2,0.2-0.3,0.2-0.5c0,0,0-1.6,0.7-1.8s1.7,1.5,2.7,2.2
			c0.4,0.3,0.8,0.4,1.3,0.4H19c0,0,1.4-0.1,0.7-1.2c-0.5-0.9-1.2-1.6-2-2.3c-1.7-1.5-1.4-1.3,0.6-4c1.2-1.6,1.7-2.6,1.6-3
			s-1-0.3-1-0.3h-3c-0.1,0-0.3,0-0.4,0.1c-0.1,0.1-0.2,0.2-0.3,0.3c-0.3,0.8-0.7,1.6-1.1,2.4c-1.3,2.3-1.9,2.4-2.1,2.2
			c-0.5-0.3-0.4-1.3-0.4-2c0-2.2,0.3-3.1-0.6-3.3C10.5,0.1,10,0,9.6,0C8.7-0.1,7.9,0,7.1,0.3C6.7,0.4,6.5,0.8,6.6,0.8
			C7,0.9,7.3,1,7.5,1.3c0.2,0.4,0.3,0.9,0.3,1.4c0,0,0.2,2.6-0.4,2.9C7,5.7,6.4,5.3,5.3,3.2C4.9,2.5,4.5,1.8,4.2,1
			C4.1,0.9,4.1,0.8,3.9,0.7C3.8,0.6,3.7,0.6,3.5,0.5H0.6c0,0-0.4,0-0.6,0.2s0,0.5,0,0.5s2.2,5.2,4.8,7.8C6.1,10.5,7.9,11.3,9.7,11.3
			"/>
	</g>
</g>
</svg>
